<?xml version="1.0" encoding="UTF-8"?><svg id="Layer_1" xmlns="http://www.w3.org/2000/svg" width="19.05" height="16" viewBox="0 0 19.05 16"><defs><style>.cls-1{fill:#231f20;stroke:#231f20;stroke-miterlimit:10;}</style></defs><path class="cls-1" d="M15.54,.5c-.52,0-1.02,.05-1.5,.16h0c-.53,.11-1.04,.29-1.5,.51-.41,.2-.79,.43-1.13,.7-.42,.33-.78,.71-1.08,1.13-.51,.74-.8,1.59-.8,2.5s.29,1.76,.8,2.5c.29,.42,.66,.8,1.08,1.13,.34,.27,.72,.5,1.13,.7,.47,.22,.97,.4,1.5,.51h0c.48,.1,.98,.16,1.5,.16v5c1.04,0,2.05-.11,3.01-.32V1.17c-.88-.42-1.91-.67-3.01-.67Zm0,7.5h-.38v-.02c-1.48-.15-2.63-1.21-2.63-2.48s1.15-2.33,2.63-2.48v-.02h.37v5Z"/><path class="cls-1" d="M8.72,3c-.29-.42-.66-.8-1.08-1.13-.34-.27-.72-.5-1.13-.7-.47-.22-.97-.4-1.5-.51h0c-.48-.1-.98-.16-1.5-.16-1.1,0-2.12,.24-3.01,.67V15.18c.96,.21,1.97,.32,3.01,.32v-5c.52,0,1.02-.05,1.5-.16h0c.53-.11,1.04-.29,1.5-.51,.41-.2,.79-.43,1.13-.7,.42-.33,.78-.71,1.08-1.13,.51-.74,.8-1.59,.8-2.5s-.29-1.76-.8-2.5ZM3.88,7.98v.02h-.37V3h.38v.02c1.48,.15,2.63,1.21,2.63,2.48s-1.15,2.33-2.63,2.48Z"/></svg>